<?xml version="1.0" encoding="utf-8"?>
<!-- Generator: Adobe Illustrator 24.3.0, SVG Export Plug-In . SVG Version: 6.00 Build 0)  -->
<svg version="1.1" id="spotifeed_xA0_Image_1_" xmlns="http://www.w3.org/2000/svg" xmlns:xlink="http://www.w3.org/1999/xlink"
	 x="0px" y="0px" viewBox="0 0 750 315" style="enable-background:new 0 0 750 315;" xml:space="preserve">
<style type="text/css">
	.st0{fill:#F26522;}
</style>
<g>
	<path class="st0" d="M173.9,95.7c-16.5-16.5-38.5-25.6-61.8-25.6s-45.3,9.1-61.8,25.6s-25.6,38.5-25.6,61.8s9.1,45.3,25.6,61.8
		s38.5,25.6,61.8,25.6s45.3-9.1,61.8-25.6s25.6-38.5,25.6-61.8S190.4,112.2,173.9,95.7z M82.4,195.7c-4.7,0-8.5-3.8-8.5-8.5
		s3.8-8.5,8.5-8.5c4.7,0,8.5,3.8,8.5,8.5S87.1,195.7,82.4,195.7z M109.8,197.4c-2.8,0-5.1-2.3-5.1-5.1c0-15.1-12.3-27.4-27.4-27.4
		c-2.8,0-5.1-2.3-5.1-5.1c0-2.8,2.3-5.1,5.1-5.1c20.7,0,37.6,16.9,37.6,37.6C115,195.1,112.7,197.4,109.8,197.4z M132.8,197.4
		c-2.8,0-5.1-2.3-5.1-5.1c0-27.7-22.6-50.3-50.3-50.3c-2.8,0-5.1-2.3-5.1-5.1s2.3-5.1,5.1-5.1c33.4,0,60.5,27.2,60.5,60.5
		C137.9,195.1,135.6,197.4,132.8,197.4z M155.4,197.4c-2.8,0-5.1-2.3-5.1-5.1c0-40.2-32.7-72.9-72.9-72.9c-2.8,0-5.1-2.3-5.1-5.1
		s2.3-5.1,5.1-5.1c22.2,0,43.1,8.7,58.8,24.4c15.7,15.7,24.4,36.6,24.4,58.8C160.5,195.1,158.2,197.4,155.4,197.4z"/>
	<g>
		<path class="st0" d="M232.7,164.6c6,6.2,15.2,11.4,26.9,11.4c9.9,0,14.7-4.7,14.7-9.5c0-6.3-7.4-8.5-17.1-10.8
			c-13.8-3.2-31.6-7-31.6-25.9c0-14.1,12.2-25.5,32.1-25.5c13.5,0,24.6,4.1,33,11.8l-10,13.2c-6.9-6.4-16-9.3-24.3-9.3
			c-8.1,0-12.4,3.6-12.4,8.6c0,5.7,7.1,7.5,16.9,9.8c14,3.2,31.7,7.4,31.7,26.2c0,15.5-11,27.2-33.9,27.2
			c-16.3,0-27.9-5.5-35.9-13.5L232.7,164.6z"/>
		<path class="st0" d="M298,213.6v-84.7h16.1v7.7c4.7-6,11.4-9.3,18.9-9.3c15.7,0,27.2,11.7,27.2,32.1c0,20.4-11.4,32.3-27.2,32.3
			c-7.2,0-14-3-18.9-9.4v31.2H298z M328,141.7c-5.2,0-11.2,3-13.8,7v21.7c2.7,3.8,8.6,7,13.8,7c9.3,0,15.5-7.2,15.5-17.9
			C343.5,149,337.2,141.7,328,141.7z"/>
		<path class="st0" d="M361.9,159.5c0-17.4,12.2-32.1,32.4-32.1c20.3,0,32.5,14.7,32.5,32.1c0,17.5-12.2,32.3-32.5,32.3
			C374.1,191.8,361.9,177,361.9,159.5z M410,159.5c0-9.5-5.7-17.8-15.7-17.8s-15.6,8.3-15.6,17.8c0,9.7,5.6,17.9,15.6,17.9
			S410,169.1,410,159.5z"/>
		<path class="st0" d="M435.4,175v-32h-10.2v-14.1h10.2v-16.8h16.3v16.8h12.4V143h-12.4v27.7c0,3.8,2,6.7,5.6,6.7
			c2.4,0,4.7-0.9,5.6-1.8l3.4,12.2c-2.4,2.2-6.7,3.9-13.5,3.9C441.5,191.8,435.4,185.9,435.4,175z"/>
		<path class="st0" d="M467,110.2c0-5.3,4.4-9.7,9.7-9.7c5.3,0,9.7,4.3,9.7,9.7s-4.3,9.7-9.7,9.7C471.5,119.9,467,115.6,467,110.2z
			 M468.7,128.9h16.1v61.3h-16.1V128.9z"/>
		<path class="st0" d="M497.9,143h-10.2v-14.1h10.2v-3.3c0-13.3,8.6-21.3,20.7-21.3c4.6,0,8.8,1,11.7,2.5l-3.3,11.4
			c-1.4-0.9-3.3-1.3-5.2-1.3c-4.6,0-7.6,3-7.6,8.9v3h12.4V143h-12.4v47.2h-16.3V143z"/>
		<path class="st0" d="M557.2,127.4c18.3,0,30.7,13.7,30.7,33.8v3.6h-45.6c1,7.7,7.2,14.2,17.7,14.2c5.7,0,12.4-2.3,16.4-6.1
			l7.1,10.4c-6.2,5.7-15.7,8.5-25.3,8.5c-18.7,0-32.8-12.6-32.8-32.3C525.4,141.7,538.5,127.4,557.2,127.4z M542.1,153.8h30.2
			c-0.4-5.8-4.4-13.6-15.1-13.6C547.2,140.2,542.8,147.7,542.1,153.8z"/>
		<path class="st0" d="M620.9,127.4c18.3,0,30.7,13.7,30.7,33.8v3.6h-45.6c1,7.7,7.2,14.2,17.7,14.2c5.7,0,12.4-2.3,16.4-6.1
			l7.1,10.4c-6.2,5.7-15.7,8.5-25.3,8.5c-18.7,0-32.8-12.6-32.8-32.3C589.2,141.7,602.3,127.4,620.9,127.4z M605.8,153.8h30.2
			c-0.4-5.8-4.4-13.6-15.1-13.6C610.9,140.2,606.6,147.7,605.8,153.8z"/>
		<path class="st0" d="M699,182.5c-4.8,6-11.6,9.3-18.9,9.3c-15.5,0-27.2-11.7-27.2-32.1c0-20.1,11.6-32.3,27.2-32.3
			c7.2,0,14.1,3.2,18.9,9.4v-31.2h16.3v84.7H699V182.5z M699,148.7c-2.8-4.1-8.5-7-14-7c-9.1,0-15.5,7.2-15.5,17.9
			c0,10.5,6.3,17.8,15.5,17.8c5.5,0,11.2-2.9,14-7V148.7z"/>
	</g>
</g>
</svg>
